<svg width="66" height="64" viewBox="0 0 66 64" fill="none" xmlns="http://www.w3.org/2000/svg">
<g filter="url(#filter0_d_114_1272)">
<path d="M32.9881 44.4327L32.8761 44.5L32.8089 44.4579C11.6029 31.6822 18.8806 19.3526 26.7516 19.5013C27.0036 19.5013 27.2583 19.5266 27.5102 19.5575C30.6788 19.9419 32.1707 21.704 32.8761 23.2193C33.5787 21.704 35.0734 19.9419 38.242 19.5715C46.3566 18.5697 54.8071 31.2529 32.9881 44.4327Z" fill="white"/>
<path d="M32.9881 44.4327L32.8761 44.5L32.8089 44.4579C11.6029 31.6822 18.8806 19.3526 26.7516 19.5013C27.0036 19.5013 27.2583 19.5266 27.5102 19.5575C30.6788 19.9419 32.1707 21.704 32.8761 23.2193C33.5787 21.704 35.0734 19.9419 38.242 19.5715C46.3566 18.5697 54.8071 31.2529 32.9881 44.4327Z" stroke="white" stroke-width="1.4"/>
</g>
<defs>
<filter id="filter0_d_114_1272" x="0.171387" y="0.799988" width="65.4004" height="62.5214" filterUnits="userSpaceOnUse" color-interpolation-filters="sRGB">
<feFlood flood-opacity="0" result="BackgroundImageFix"/>
<feColorMatrix in="SourceAlpha" type="matrix" values="0 0 0 0 0 0 0 0 0 0 0 0 0 0 0 0 0 0 127 0" result="hardAlpha"/>
<feOffset/>
<feGaussianBlur stdDeviation="9"/>
<feColorMatrix type="matrix" values="0 0 0 0 0 0 0 0 0 0 0 0 0 0 0 0 0 0 0.25 0"/>
<feBlend mode="darken" in2="BackgroundImageFix" result="effect1_dropShadow_114_1272"/>
<feBlend mode="normal" in="SourceGraphic" in2="effect1_dropShadow_114_1272" result="shape"/>
</filter>
</defs>
</svg>
